<?xml version="1.0" encoding="utf-8"?>
<!-- Generator: Adobe Illustrator 16.0.0, SVG Export Plug-In . SVG Version: 6.00 Build 0)  -->
<!DOCTYPE svg PUBLIC "-//W3C//DTD SVG 1.1//EN" "http://www.w3.org/Graphics/SVG/1.1/DTD/svg11.dtd">
<svg version="1.1" id="Layer_1" xmlns="http://www.w3.org/2000/svg" xmlns:xlink="http://www.w3.org/1999/xlink" x="0px" y="0px"
	 width="281px" height="36px" viewBox="0 0 281 36" style="enable-background:new 0 0 281 36;" xml:space="preserve">
<g>
	<path style="fill:#FFFFFF;" d="M15.173,1.111c2.669,0,5.437,0,7.76,1.504c2.719,1.754,4.152,4.261,4.152,7.519
		c0,3.91-2.57,6.517-6.128,7.419v0.1c4.201,0.853,7.068,4.11,7.068,8.572c0,3.008-1.78,5.664-4.152,7.419
		c-2.471,1.854-5.783,1.854-8.699,1.854H0V1.111H15.173z M7.908,14.746h5.387c1.384,0,3.015,0.101,4.201-0.802
		c0.939-0.702,1.433-1.955,1.433-3.108c0-1.253-0.593-2.456-1.68-3.108c-1.137-0.651-3.213-0.501-4.547-0.501H7.908V14.746z
		 M7.908,29.132h5.486c1.434,0,3.262,0.101,4.498-0.752c1.137-0.752,1.779-2.155,1.779-3.559c0-1.304-0.791-2.657-1.928-3.309
		c-1.137-0.652-2.718-0.652-4.003-0.652H7.908V29.132z"/>
	<path style="fill:#FFFFFF;" d="M39.542,35.499h-7.908V1.111h7.908V35.499z"/>
	<path style="fill:#FFFFFF;" d="M56.841,23.518v-6.417h13.938v18.397h-3.608l-1.137-3.96C63.513,34.647,60.746,36,56.792,36
		c-9.935,0-14.037-8.371-14.037-17.394c0-9.324,4.497-17.996,14.729-17.996c7.315,0,12.258,4.512,13.295,11.78l-7.513,1.053
		c-0.346-3.459-2.175-6.366-5.98-6.366c-5.585,0-6.425,7.369-6.425,11.629c0,4.462,1.236,10.777,6.771,10.777
		c3.459,0,5.832-2.456,5.634-5.965H56.841z"/>
	<path style="fill:#FFFFFF;" d="M83.038,35.499H75.13V1.111h14.284c3.015,0,6.079,0.05,8.699,1.754c2.768,1.854,4.3,5.213,4.3,8.572
		c0,3.91-2.225,7.519-5.882,8.873l6.277,15.188H94.01l-5.19-13.584h-5.783V35.499z M83.038,15.999h4.35
		c1.631,0,3.41,0.15,4.844-0.702c1.285-0.802,1.977-2.406,1.977-3.911c0-1.353-0.791-2.807-1.928-3.509
		c-1.334-0.852-3.608-0.651-5.091-0.651h-4.152V15.999z"/>
	<path style="fill:#FFFFFF;" d="M114.672,35.499h-7.908V1.111h7.908V35.499z"/>
	<path style="fill:#FFFFFF;" d="M131.971,23.518v-6.417h13.938v18.397H142.3l-1.136-3.96c-2.521,3.108-5.288,4.461-9.243,4.461
		c-9.935,0-14.037-8.371-14.037-17.394c0-9.324,4.498-17.996,14.729-17.996c7.315,0,12.257,4.512,13.295,11.78l-7.512,1.053
		c-0.346-3.459-2.174-6.366-5.98-6.366c-5.585,0-6.425,7.369-6.425,11.629c0,4.462,1.235,10.777,6.771,10.777
		c3.46,0,5.832-2.456,5.634-5.965H131.971z"/>
	<path style="fill:#F6921E;" d="M153.571,35.499h-3.559V1.111h6.326l10.231,27.521l9.983-27.521h6.228v34.388h-4.25V5.472h-0.198
		l-10.725,30.027h-2.867L153.769,5.472h-0.197V35.499z"/>
	<path style="fill:#F6921E;" d="M209.771,35.499h-21.945V1.111h21.451V4.82h-17.2v10.928h13.641v3.459h-13.641v12.581h17.694V35.499
		z"/>
	<path style="fill:#F6921E;" d="M213.528,1.111h10.726c4.844,0,8.452,1.002,11.665,4.862c2.915,3.459,4.102,7.77,4.102,12.231
		c0,4.211-1.087,8.371-3.51,11.83c-2.718,3.86-6.227,5.464-10.873,5.464h-12.109V1.111z M224.007,31.839
		c3.904,0,7.019-0.902,9.242-4.36c1.681-2.607,2.472-6.166,2.472-9.274c0-3.509-0.89-7.168-3.114-9.976
		c-2.322-2.958-5.041-3.509-8.6-3.509h-6.228v27.12H224.007z"/>
	<path style="fill:#F6921E;" d="M244.223,35.499V1.111h4.25v34.388H244.223z"/>
	<path style="fill:#F6921E;" d="M273.928,35.499l-3.41-10.025h-12.554l-3.016,10.025h-3.559l10.973-34.388h4.894l11.021,34.388
		H273.928z M264.389,5.723l-5.239,16.492h10.43L264.389,5.723z"/>
	<path style="fill:#FFFFFF;" d="M272.786,4.027c0-2.214,1.845-4.027,4.118-4.027C279.167,0,281,1.813,281,4.027
		c0,2.26-1.833,4.073-4.096,4.073C274.631,8.1,272.786,6.288,272.786,4.027z M273.567,4.027c0,1.847,1.481,3.281,3.337,3.281
		c1.833,0,3.314-1.434,3.314-3.281c0-1.79-1.481-3.236-3.314-3.236C275.049,0.792,273.567,2.237,273.567,4.027z M278.952,6.311
		h-0.781l-1.312-2.088h-0.804v2.088h-0.679V1.778h2.003c0.384,0,0.77,0.023,1.12,0.218c0.339,0.195,0.509,0.596,0.509,0.975
		c0,0.895-0.633,1.228-1.447,1.25L278.952,6.311z M276.803,3.66c0.645,0,1.527,0.115,1.527-0.7c0-0.585-0.509-0.666-1.086-0.666
		h-1.188V3.66H276.803z"/>
</g>
</svg>
