<svg height="600" viewBox="0 0 960 600" width="960" xmlns="http://www.w3.org/2000/svg"><g fill="none" fill-rule="evenodd"><path d="m.5.5h959v599h-959z" fill="#303952" stroke="#979797"/><g fill="#fff" fill-rule="nonzero" transform="translate(183 262)"><path d="m31.4017484 3c5.523711 0 11.2523105 0 16.0599465 3.14909704 5.62719 3.67255068 8.5928992 8.92174366 8.5928992 15.74339136 0 8.1868148-5.3188225 13.6453893-12.6823907 15.53401v.2093814c8.6943086 1.7860238 14.6277966 8.6055777 14.6277966 17.9481781 0 6.2981941-3.6838537 11.8593655-8.5928992 15.53401-5.113934 3.8819321-11.9683854 3.8819321-18.0032828 3.8819321h-31.403818v-72zm-15.035504 28.549161h11.1488314c2.8642998 0 6.2397859.2114753 8.6943087-1.6792392 1.9433363-1.4698578 2.9657092-4.0934074 2.9657092-6.5075756 0-2.6235496-1.2272614-5.1424084-3.4768957-6.5075755-2.3531133-1.3630733-6.6495629-1.0490011-9.4103835-1.0490011h-9.9215701zm0 30.1216157h11.3537199c2.9677788 0 6.7509724.2114753 9.3089741-1.5745485 2.3531133-1.5745485 3.6817842-4.5121703 3.6817842-7.4518859 0-2.7303341-1.6370384-5.5632651-3.9901517-6.9284322s-5.6251204-1.3651671-8.2845316-1.3651671h-12.0697949z"/><path d="m84 75h-18v-72h18z"/><path d="m120.153154 49.5476123v-13.5991805h28.846846v38.9877084h-7.467314l-2.353197-8.3922012c-5.217599 6.5887256-10.944333 9.456061-19.127748 9.456061-20.5620179 0-29.051741-17.7401808-29.051741-36.8621079 0-19.7598192 9.307237-38.1378921 30.483942-38.1378921 15.139524 0 25.369826 9.5620232 27.516058 24.9646793l-15.549315 2.2315626c-.7161-7.3304606-4.501499-13.4910992-12.376534-13.4910992-11.559021 0-13.297531 15.6166996-13.297531 24.6446736 0 9.4560611 2.558093 22.8390789 14.013631 22.8390789 7.158935 0 12.070226-5.2048602 11.660434-12.6412829z"/><path d="m175.285714 75h-16.285714v-72h29.416432c6.209083 0 12.519076.10468768 17.914697 3.67244388 5.700412 3.88181922 8.855409 10.91473772 8.855409 17.94765612 0 8.1865767-4.582159 15.7429336-12.113375 18.577876l12.926837 31.7999302h-18.118578l-10.688272-28.4415493h-11.909495v28.4436431zm0-40.8281959h8.958379c3.358877 0 7.022545.3140631 9.975721-1.469815 2.646325-1.6791904 4.071428-5.0375713 4.071428-8.1886705 0-2.8328487-1.628983-5.8771665-3.970518-7.3469815-2.747236-1.7838781-7.430306-1.3630336-10.484392-1.3630336h-8.550618z"/><path d="m243 75h-18v-72h18z"/><path d="m278.154184 49.5497316v-13.5991806h28.845816v38.9877084h-7.469117l-2.351044-8.3922012c-5.217413 6.5866064-10.943942 9.4539418-19.129134 9.4539418-20.561285 0-29.050705-17.7401808-29.050705-36.8621079 0-19.7598192 9.308974-38.1378921 30.482855-38.1378921 15.138983 0 25.366851 9.5620232 27.515075 24.9646793l-15.54669 2.2315626c-.716075-7.3304606-4.499269-13.4910992-12.376093-13.4910992-11.558608 0-13.297056 15.6166996-13.297056 24.6446736 0 9.4560611 2.555932 22.8390789 14.013131 22.8390789 7.160749 0 12.069795-5.2048602 11.660018-12.6412829h-13.297056z"/><path d="m323.602844 75h-7.602844v-72h13.513794l21.855774 57.6221938 21.325989-57.6221938h13.304443v72h-9.078979v-62.8691404h-.422974l-22.911072 62.8691404h-6.124573l-23.436584-62.8691404h-.420838v62.8691404z"/><path d="m445 75h-47v-72h45.941991v7.7657322h-36.837548v22.8805398h29.215174v7.2422938h-29.215174v26.3415145h37.895557z"/><path d="m452 3h23.077115c10.421922 0 18.184577 2.09800215 25.097384 10.1801262 6.271657 7.2425044 8.825501 16.2689389 8.825501 25.6094454 0 8.817053-2.338693 17.5273214-7.551806 24.7698258-5.847809 8.0821241-13.397464 11.4406026-23.393387 11.4406026h-26.052655v-72zm22.545691 64.3387327c8.399502 0 15.101461-1.8886207 19.884272-9.1290314 3.616691-5.4585744 5.318537-12.9104603 5.318537-19.4180358 0-7.3471952-1.914846-15.0084625-6.699808-20.8878937-4.99581-6.1935034-10.84577-7.3471952-18.503001-7.3471952h-13.399615v56.7842499h13.399615z"/><path d="m516 75v-72h10v72z"/><path d="m579.780534 75-7.228875-20.9898802h-26.613285l-6.393633 20.9898802h-7.544741l23.261715-72h10.374814l23.363471 72zm-20.221772-62.3436082-11.106181 34.5301849h22.110607z"/><path d="m577 8.94888889c0-4.92 4.043097-8.94888889 9.024105-8.94888889 4.959094 0 8.975895 4.02888889 8.975895 8.94888889 0 5.02222221-4.016801 9.05111111-8.975895 9.05111111-4.981008 0-9.024105-4.0266667-9.024105-9.05111111zm1.711468 0c0 4.10444441 3.245435 7.29111111 7.312637 7.29111111 4.016801 0 7.262235-3.1866667 7.262235-7.29111111 0-3.97777778-3.245434-7.19111111-7.262235-7.19111111-4.065011.00222222-7.312637 3.21333333-7.312637 7.19111111zm11.800585 5.07555551h-1.711469l-2.875091-4.63999996h-1.76187v4.63999996h-1.487947v-10.07333329h4.389335c.84149 0 1.687363.05111111 2.454346.48444445.742878.43333333 1.115413 1.32444444 1.115413 2.16666666 0 1.98888889-1.387144 2.72888889-3.170928 2.77777778zm-4.709277-5.89111107c1.41344 0 3.346238.25555556 3.346238-1.55555555 0-1.3-1.115413-1.48-2.379839-1.48h-2.603361v3.03555555z"/></g></g></svg>